<svg xmlns="http://www.w3.org/2000/svg" 
    xml:space="preserve" 
    fill-rule="evenodd" 
    stroke-linejoin="round" 
    stroke-miterlimit="2" 
    clip-rule="evenodd" 
    viewBox="0 0 100 100">
  <path 
    d="M50 0c27.596 0 50 22.404 50 50s-22.404 50-50 50S0 77.596 0 50 22.404 0 50 0Zm-.515 82.49c-1.745 0-3.269-.566-4.571-1.696-1.302-1.13-1.953-2.711-1.953-4.742 0-1.803.63-3.319 1.889-4.55 1.259-1.23 2.804-1.845 4.635-1.845 1.803 0 3.319.615 4.549 1.845 1.231 1.231 1.846 2.747 1.846 4.55 0 2.003-.644 3.576-1.931 4.721-1.288 1.144-2.776 1.717-4.464 1.717ZM28.541 35.451c0-2.719.872-5.473 2.618-8.262 1.745-2.79 4.292-5.101 7.639-6.932 3.348-1.831 7.253-2.747 11.717-2.747 4.149 0 7.811.766 10.987 2.297 3.176 1.53 5.63 3.612 7.361 6.244 1.731 2.633 2.596 5.494 2.596 8.584 0 2.432-.493 4.564-1.48 6.395-.987 1.831-2.161 3.412-3.52 4.742-1.359 1.331-3.798 3.57-7.317 6.717-.973.887-1.753 1.667-2.339 2.339-.587.673-1.023 1.288-1.309 1.846-.287.558-.508 1.116-.666 1.674-.157.558-.393 1.538-.708 2.94-.543 2.975-2.246 4.463-5.107 4.463-1.488 0-2.74-.486-3.756-1.459-1.015-.973-1.523-2.418-1.523-4.335 0-2.403.372-4.485 1.116-6.245.744-1.759 1.731-3.304 2.961-4.635 1.23-1.33 2.89-2.911 4.979-4.742 1.831-1.603 3.154-2.811 3.97-3.627.815-.815 1.502-1.724 2.06-2.725.558-1.002.837-2.089.837-3.262 0-2.289-.851-4.22-2.554-5.794-1.702-1.574-3.898-2.361-6.588-2.361-3.147 0-5.465.794-6.953 2.382-1.488 1.588-2.747 3.927-3.777 7.018-.973 3.233-2.818 4.849-5.536 4.849-1.603 0-2.954-.565-4.056-1.695-1.102-1.13-1.652-2.353-1.652-3.669Z"/>
</svg>