<?xml version="1.0" encoding="UTF-8" standalone="no"?><!DOCTYPE svg PUBLIC "-//W3C//DTD SVG 1.1//EN" "http://www.w3.org/Graphics/SVG/1.1/DTD/svg11.dtd"><svg width="100%" height="100%" viewBox="0 0 100 100" version="1.1" xmlns="http://www.w3.org/2000/svg" xmlns:xlink="http://www.w3.org/1999/xlink" xml:space="preserve" xmlns:serif="http://www.serif.com/" style="fill-rule:evenodd;clip-rule:evenodd;stroke-linejoin:round;stroke-miterlimit:2;"><path d="M50,0c27.596,0 50,22.404 50,50c0,27.596 -22.404,50 -50,50c-27.596,0 -50,-22.404 -50,-50c0,-27.596 22.404,-50 50,-50Zm-0.515,82.49c-1.745,-0 -3.269,-0.566 -4.571,-1.696c-1.302,-1.13 -1.953,-2.711 -1.953,-4.742c0,-1.803 0.63,-3.319 1.889,-4.55c1.259,-1.23 2.804,-1.845 4.635,-1.845c1.803,-0 3.319,0.615 4.549,1.845c1.231,1.231 1.846,2.747 1.846,4.55c-0,2.003 -0.644,3.576 -1.931,4.721c-1.288,1.144 -2.776,1.717 -4.464,1.717Zm-20.944,-47.039c-0,-2.719 0.872,-5.473 2.618,-8.262c1.745,-2.79 4.292,-5.101 7.639,-6.932c3.348,-1.831 7.253,-2.747 11.717,-2.747c4.149,0 7.811,0.766 10.987,2.297c3.176,1.53 5.63,3.612 7.361,6.244c1.731,2.633 2.596,5.494 2.596,8.584c0,2.432 -0.493,4.564 -1.48,6.395c-0.987,1.831 -2.161,3.412 -3.52,4.742c-1.359,1.331 -3.798,3.57 -7.317,6.717c-0.973,0.887 -1.753,1.667 -2.339,2.339c-0.587,0.673 -1.023,1.288 -1.309,1.846c-0.287,0.558 -0.508,1.116 -0.666,1.674c-0.157,0.558 -0.393,1.538 -0.708,2.94c-0.543,2.975 -2.246,4.463 -5.107,4.463c-1.488,0 -2.74,-0.486 -3.756,-1.459c-1.015,-0.973 -1.523,-2.418 -1.523,-4.335c-0,-2.403 0.372,-4.485 1.116,-6.245c0.744,-1.759 1.731,-3.304 2.961,-4.635c1.23,-1.33 2.89,-2.911 4.979,-4.742c1.831,-1.603 3.154,-2.811 3.97,-3.627c0.815,-0.815 1.502,-1.724 2.06,-2.725c0.558,-1.002 0.837,-2.089 0.837,-3.262c-0,-2.289 -0.851,-4.22 -2.554,-5.794c-1.702,-1.574 -3.898,-2.361 -6.588,-2.361c-3.147,0 -5.465,0.794 -6.953,2.382c-1.488,1.588 -2.747,3.927 -3.777,7.018c-0.973,3.233 -2.818,4.849 -5.536,4.849c-1.603,0 -2.954,-0.565 -4.056,-1.695c-1.102,-1.13 -1.652,-2.353 -1.652,-3.669Z" style="fill:#73241d;"/></svg>