<svg xmlns="http://www.w3.org/2000/svg" 
    xml:space="preserve" 
    fill-rule="evenodd" 
    stroke-linejoin="round" 
    stroke-miterlimit="2" 
    clip-rule="evenodd" 
    viewBox="0 0 101 101">
  <path 
    fill-rule="nonzero" 
    d="M71.065 53.719v-2.575c-.286-2.575-1.001-5.007-2.146-7.296-2.003-3.148-4.435-5.151-7.296-6.009l1.288-2.575c2.861.858 5.15 2.432 6.867 4.721.286-1.717.429-3.433.429-5.15 0-5.723-.859-9.871-2.575-12.447-2.862-4.005-4.292-8.011-4.292-12.017.286-1.716.858-4.005 1.717-6.867H35.443c1.43 2.003 2.718 3.577 3.862 4.721l.43.859-.43.858c-6.58 13.162-9.871 29.614-9.871 49.356.286 10.873 1.431 22.175 3.434 33.906.572 2.861 1.573 4.292 3.004 4.292s2.289-.716 2.575-2.146c.858-2.861 1.288-7.726 1.288-14.592 0-8.012-.573-15.88-1.717-23.606l3.004-.429c1.717 6.581 4.721 9.871 9.013 9.871 2.289 0 3.863-.715 4.721-2.146.572-.286.715-.715.429-1.287 0-.286-.143-.572-.429-.858-2.003 0-4.292-.716-6.867-2.146-3.433-1.717-6.438-4.578-9.013-8.584-3.147-4.864-5.007-10.444-5.579-16.738l3.004-.429c.572 5.722 2.146 10.729 4.721 15.021 2.575 3.72 5.437 6.438 8.584 8.155 2.575 1.144 4.292 1.716 5.15 1.716 1.145 0 1.574-.715 1.288-2.146-.286-1.43-1.002-3.147-2.146-5.15-1.431-2.289-3.577-4.435-6.438-6.438l-1.717-.858 1.288-1.288c3.433-4.578 5.436-9.585 6.008-15.021.286-3.72 0-6.867-.858-9.442l3.004-.858c.573 2.575.859 5.722.859 9.442 0 5.722-1.86 11.158-5.58 16.309 2.861 2.002 5.007 4.291 6.438 6.867 1.717 2.575 2.575 4.864 2.575 6.867 0 1.716-.572 3.004-1.717 3.862.286.572.43 1.145.43 1.717 0 .572-.144 1.001-.43 1.287.573.287 1.002.287 1.288 0 2.575 0 4.006-2.145 4.292-6.437.572-8.87-2.289-14.736-8.584-17.597l1.288-2.575c6.294 2.861 9.728 8.011 10.3 15.451.286 3.433.286 5.579 0 6.437 2.861-.572 4.435-2.575 4.721-6.008Zm1.717-9.442c1.43 2.575 2.003 5.15 1.717 7.725.286 2.575-.43 4.864-2.146 6.867-1.431 2.289-3.72 3.577-6.867 3.863-1.431 3.147-3.577 4.721-6.438 4.721-.858 0-1.717-.143-2.575-.429-1.717 1.716-3.863 2.575-6.438 2.575h-1.288c-2.575-.286-4.864-1.574-6.866-3.863.572 5.723.858 10.873.858 15.451 0 6.581-.429 11.445-1.288 14.592-.858 3.147-2.718 4.721-5.579 4.721-3.147 0-5.15-2.289-6.009-6.867-2.289-12.017-3.433-23.462-3.433-34.335 0-18.884 3.29-35.479 9.871-49.785-1.717-2.289-3.433-4.721-5.15-7.296L29.863.5h39.485l-.858 1.717c-1.431 3.433-2.003 6.438-1.717 9.013.286 2.861 1.431 6.008 3.434 9.442 2.003 3.147 3.004 7.868 3.004 14.163 0 2.861-.143 6.008-.429 9.442Z"/>
</svg>