<?xml version="1.0" encoding="UTF-8" standalone="no"?><!DOCTYPE svg PUBLIC "-//W3C//DTD SVG 1.1//EN" "http://www.w3.org/Graphics/SVG/1.1/DTD/svg11.dtd"><svg width="100%" height="100%" viewBox="0 0 517 517" version="1.1" xmlns="http://www.w3.org/2000/svg" xmlns:xlink="http://www.w3.org/1999/xlink" xml:space="preserve" xmlns:serif="http://www.serif.com/" style="fill-rule:evenodd;clip-rule:evenodd;stroke-linejoin:round;stroke-miterlimit:2;"><g><circle cx="258.333" cy="258.333" r="258.333" style="fill:#fff;"/><g><path d="M450.935,222.11l-169.955,-0.008c-7.505,-0 -13.588,6.082 -13.588,13.587l-0,54.293c-0,7.503 6.083,13.587 13.587,13.587l95.708,-0c-10.48,27.198 -30.04,49.976 -54.997,64.449l40.81,70.645c65.465,-37.861 104.168,-104.291 104.168,-178.654c-0,-10.589 -0.781,-18.158 -2.343,-26.681c-1.184,-6.476 -6.809,-11.218 -13.39,-11.218Z" style="fill:#167ee6;fill-rule:nonzero;"/><path d="M258.331,385.146c-46.838,-0 -87.726,-25.591 -109.687,-63.46l-70.643,40.718c35.95,62.308 103.295,104.263 180.33,104.263c37.791,-0 73.449,-10.173 104.167,-27.905l0,-0.099l-40.81,-70.645c-18.667,10.827 -40.268,17.128 -63.357,17.128Z" style="fill:#12b347;fill-rule:nonzero;"/><path d="M362.499,438.758l0,-0.095l-40.81,-70.647c-18.667,10.826 -40.267,17.129 -63.357,17.129l0,81.522c37.791,-0 73.451,-10.177 104.167,-27.909Z" style="fill:#0f993e;fill-rule:nonzero;"/><path d="M131.521,258.332c0,-23.087 6.3,-44.686 17.125,-63.352l-70.643,-40.718c-17.83,30.621 -28.004,66.183 -28.004,104.07c0,37.888 10.174,73.449 28.004,104.07l70.643,-40.718c-10.825,-18.666 -17.125,-40.265 -17.125,-63.352Z" style="fill:#ffd500;fill-rule:nonzero;"/><path d="M258.331,131.522c30.543,-0 58.598,10.853 80.512,28.905c5.406,4.454 13.263,4.132 18.215,-0.82l38.467,-38.468c5.621,-5.619 5.22,-14.816 -0.781,-20.022c-36.716,-31.852 -84.487,-51.117 -136.413,-51.117c-77.035,0 -144.38,41.957 -180.33,104.264l70.643,40.718c21.961,-37.869 62.849,-63.46 109.687,-63.46Z" style="fill:#ff4b26;fill-rule:nonzero;"/><path d="M338.844,160.427c5.406,4.454 13.264,4.132 18.215,-0.82l38.469,-38.468c5.618,-5.619 5.217,-14.816 -0.784,-20.022c-36.715,-31.853 -84.485,-51.117 -136.412,-51.117l0,81.522c30.542,-0 58.598,10.853 80.512,28.905Z" style="fill:#d93f21;fill-rule:nonzero;"/></g></g></svg>