<svg xmlns="http://www.w3.org/2000/svg" 
    xml:space="preserve" 
    fill-rule="evenodd" 
    stroke-linejoin="round" 
    stroke-miterlimit="2" 
    clip-rule="evenodd" 
    viewBox="0 0 517 517">
  <circle cx="258.333" cy="258.333" r="258.333" fill="#fff"/>
  <g fill-rule="nonzero">
    <path fill="#167ee6" 
      d="m450.935 222.11-169.955-.008c-7.505 0-13.588 6.082-13.588 13.587v54.293c0 7.503 6.083 13.587 13.587 13.587h95.708c-10.48 27.198-30.04 49.976-54.997 64.449l40.81 70.645c65.465-37.861 104.168-104.291 104.168-178.654 0-10.589-.781-18.158-2.343-26.681-1.184-6.476-6.809-11.218-13.39-11.218Z"/>
    <path fill="#12b347" 
      d="M258.331 385.146c-46.838 0-87.726-25.591-109.687-63.46l-70.643 40.718c35.95 62.308 103.295 104.263 180.33 104.263 37.791 0 73.449-10.173 104.167-27.905v-.099l-40.81-70.645c-18.667 10.827-40.268 17.128-63.357 17.128Z"/>
    <path fill="#0f993e" 
      d="M362.499 438.758v-.095l-40.81-70.647c-18.667 10.826-40.267 17.129-63.357 17.129v81.522c37.791 0 73.451-10.177 104.167-27.909Z"/>
    <path fill="#ffd500" 
      d="M131.521 258.332c0-23.087 6.3-44.686 17.125-63.352l-70.643-40.718c-17.83 30.621-28.004 66.183-28.004 104.07 0 37.888 10.174 73.449 28.004 104.07l70.643-40.718c-10.825-18.666-17.125-40.265-17.125-63.352Z"/>
    <path fill="#ff4b26" 
      d="M258.331 131.522c30.543 0 58.598 10.853 80.512 28.905 5.406 4.454 13.263 4.132 18.215-.82l38.467-38.468c5.621-5.619 5.22-14.816-.781-20.022C358.028 69.265 310.257 50 258.331 50c-77.035 0-144.38 41.957-180.33 104.264l70.643 40.718c21.961-37.869 62.849-63.46 109.687-63.46Z"/>
    <path fill="#d93f21" 
      d="M338.844 160.427c5.406 4.454 13.264 4.132 18.215-.82l38.469-38.468c5.618-5.619 5.217-14.816-.784-20.022C358.029 69.264 310.259 50 258.332 50v81.522c30.542 0 58.598 10.853 80.512 28.905Z"/>
  </g>
</svg>