<svg xmlns="http://www.w3.org/2000/svg" 
    xml:space="preserve" 
    fill-rule="evenodd" 
    stroke-linejoin="round" 
    stroke-miterlimit="2" 
    clip-rule="evenodd" 
    viewBox="0 0 100 100">
  <path
    d="M50 0c27.596 0 50 22.404 50 50s-22.404 50-50 50S0 77.596 0 50 22.404 0 50 0ZM19.941 84.174C27.273 75.825 38.026 70.552 50 70.552s22.727 5.273 30.059 13.622C71.692 90.483 61.279 94.226 50 94.226s-21.692-3.743-30.059-10.052ZM50 14.314c13.798 0 25 11.202 25 25s-11.202 25-25 25-25-11.202-25-25 11.202-25 25-25Z"/>
</svg>