<?xml version="1.0" encoding="UTF-8" standalone="no"?><!DOCTYPE svg PUBLIC "-//W3C//DTD SVG 1.1//EN" "http://www.w3.org/Graphics/SVG/1.1/DTD/svg11.dtd"><svg width="100%" height="100%" viewBox="0 0 100 100" version="1.1" xmlns="http://www.w3.org/2000/svg" xmlns:xlink="http://www.w3.org/1999/xlink" xml:space="preserve" xmlns:serif="http://www.serif.com/" style="fill-rule:evenodd;clip-rule:evenodd;stroke-linejoin:round;stroke-miterlimit:2;"><path d="M50,0c27.596,0 50,22.404 50,50c0,27.596 -22.404,50 -50,50c-27.596,0 -50,-22.404 -50,-50c0,-27.596 22.404,-50 50,-50Zm-23.5,65.133c2.991,0 5.419,2.429 5.419,5.419c0,2.991 -2.428,5.42 -5.419,5.42c-2.991,-0 -5.419,-2.429 -5.419,-5.42c-0,-2.99 2.428,-5.419 5.419,-5.419Zm15.826,10.839l31.605,-0c2.753,-0 4.988,-2.429 4.988,-5.42c0,-2.99 -2.235,-5.419 -4.988,-5.419l-31.605,0c-2.753,0 -4.988,2.429 -4.988,5.419c0,2.991 2.235,5.42 4.988,5.42Zm-15.826,-31.391c2.991,-0 5.419,2.428 5.419,5.419c0,2.991 -2.428,5.419 -5.419,5.419c-2.991,0 -5.419,-2.428 -5.419,-5.419c-0,-2.991 2.428,-5.419 5.419,-5.419Zm15.826,10.838l31.605,0c2.753,0 4.988,-2.428 4.988,-5.419c0,-2.991 -2.235,-5.419 -4.988,-5.419l-31.605,-0c-2.753,-0 -4.988,2.428 -4.988,5.419c0,2.991 2.235,5.419 4.988,5.419Zm-15.826,-31.391c2.991,0 5.419,2.429 5.419,5.42c0,2.99 -2.428,5.419 -5.419,5.419c-2.991,-0 -5.419,-2.429 -5.419,-5.419c-0,-2.991 2.428,-5.42 5.419,-5.42Zm15.826,10.839l31.605,-0c2.753,-0 4.988,-2.429 4.988,-5.419c0,-2.991 -2.235,-5.42 -4.988,-5.42l-31.605,0c-2.753,0 -4.988,2.429 -4.988,5.42c0,2.99 2.235,5.419 4.988,5.419Z" style="fill:#73241d;"/></svg>