<svg xmlns="http://www.w3.org/2000/svg" 
    xml:space="preserve" 
    fill-rule="evenodd" 
    stroke-linejoin="round" 
    stroke-miterlimit="2" 
    clip-rule="evenodd" 
    viewBox="0 0 100 100">
  <path
    d="M50 0c27.596 0 50 22.404 50 50s-22.404 50-50 50S0 77.596 0 50 22.404 0 50 0ZM26.5 65.133c2.991 0 5.419 2.429 5.419 5.419 0 2.991-2.428 5.42-5.419 5.42-2.991 0-5.419-2.429-5.419-5.42 0-2.99 2.428-5.419 5.419-5.419Zm15.826 10.839h31.605c2.753 0 4.988-2.429 4.988-5.42 0-2.99-2.235-5.419-4.988-5.419H42.326c-2.753 0-4.988 2.429-4.988 5.419 0 2.991 2.235 5.42 4.988 5.42ZM26.5 44.581c2.991 0 5.419 2.428 5.419 5.419 0 2.991-2.428 5.419-5.419 5.419-2.991 0-5.419-2.428-5.419-5.419 0-2.991 2.428-5.419 5.419-5.419Zm15.826 10.838h31.605c2.753 0 4.988-2.428 4.988-5.419 0-2.991-2.235-5.419-4.988-5.419H42.326c-2.753 0-4.988 2.428-4.988 5.419 0 2.991 2.235 5.419 4.988 5.419ZM26.5 24.028c2.991 0 5.419 2.429 5.419 5.42 0 2.99-2.428 5.419-5.419 5.419-2.991 0-5.419-2.429-5.419-5.419 0-2.991 2.428-5.42 5.419-5.42Zm15.826 10.839h31.605c2.753 0 4.988-2.429 4.988-5.419 0-2.991-2.235-5.42-4.988-5.42H42.326c-2.753 0-4.988 2.429-4.988 5.42 0 2.99 2.235 5.419 4.988 5.419Z"/>
</svg>