<?xml version="1.0" encoding="UTF-8" standalone="no"?><!DOCTYPE svg PUBLIC "-//W3C//DTD SVG 1.1//EN" "http://www.w3.org/Graphics/SVG/1.1/DTD/svg11.dtd"><svg width="100%" height="100%" viewBox="0 0 326 100" version="1.1" xmlns="http://www.w3.org/2000/svg" xmlns:xlink="http://www.w3.org/1999/xlink" xml:space="preserve" xmlns:serif="http://www.serif.com/" style="fill-rule:evenodd;clip-rule:evenodd;stroke-linejoin:round;stroke-miterlimit:2;"><g><path d="M85.431,99.579c-6.825,0 -12.18,-1.12 -16.066,-3.362c-4.184,-2.341 -6.451,-5.654 -6.8,-9.938l-0.672,-7.024c4.583,-1.096 8.444,-3.936 11.582,-8.519c0.847,-1.295 1.271,-2.416 1.271,-3.363c-0,-1.295 -0.648,-1.942 -1.943,-1.942l-0.224,-0c-0.05,0.049 -0.15,0.074 -0.299,0.074c-3.488,7.323 -9.142,10.985 -16.963,10.985c-3.985,-0 -7.385,-0.872 -10.2,-2.616c-2.814,-1.743 -5.392,-4.757 -7.734,-9.041l-0.448,-0c-1.345,-0 -2.017,0.573 -2.017,1.718c-0,0.797 0.298,1.694 0.896,2.69c1.993,3.338 4.484,5.954 7.473,7.847c2.341,1.594 4.807,2.54 7.397,2.839l-0.597,14.123c-2.989,1.943 -6.14,3.35 -9.453,4.222c-3.313,0.872 -8.02,1.307 -14.123,1.307c-6.102,0 -11.545,-1.195 -16.327,-3.586c-5.878,-2.939 -8.818,-7.024 -8.818,-12.255c0,-6.526 1.296,-22.641 3.886,-48.347c1.395,-13.4 2.516,-22.766 3.363,-28.096c5.131,-4.583 12.703,-6.874 22.716,-6.874c7.273,-0 13.301,1.345 18.083,4.035l4.11,13.749l-2.615,10.984c-0.2,0.748 -0.299,1.47 -0.299,2.167c-0,1.744 0.996,2.641 2.989,2.69l7.098,-29.516c2.043,-1.096 4.708,-2.055 7.996,-2.877c3.288,-0.822 6.874,-1.232 10.76,-1.232c7.273,-0 12.666,1.232 16.178,3.698c3.512,2.466 5.592,6.613 6.239,12.442c0.15,1.096 0.374,2.914 0.673,5.455c4.533,38.956 6.8,61.896 6.8,68.821c-5.53,5.828 -13.5,8.742 -23.912,8.742Z" style="fill-rule:nonzero;"/><path d="M146.584,15.888l-2.391,47.45c0.597,0.15 1.121,0.224 1.569,0.224c1.644,0 2.565,-1.245 2.765,-3.736l3.288,-54.399c1.544,-1.345 4.383,-2.541 8.518,-3.587c3.936,-0.896 7.497,-1.345 10.686,-1.345c7.522,0 13.151,1.719 16.887,5.156c3.737,3.438 5.605,7.871 5.605,13.301c-0,3.039 -1.233,9.851 -3.699,20.437c-2.466,10.586 -6.016,24.896 -10.648,42.929c-1.694,6.327 -5.505,10.885 -11.433,13.675c-5.181,2.391 -12.031,3.586 -20.549,3.586c-5.381,0 -10.462,-0.597 -15.244,-1.793c-4.782,-1.195 -8.618,-2.914 -11.508,-5.156c-3.935,-8.668 -7.895,-20.586 -11.881,-35.755c-3.985,-15.169 -6.974,-30.525 -8.967,-46.068c4.683,-6.924 12.131,-10.386 22.343,-10.386c13.151,-0 21.371,5.155 24.659,15.467Z" style="fill-rule:nonzero;"/><path d="M236.73,15.888l-2.392,47.45c0.598,0.15 1.121,0.224 1.57,0.224c1.644,0 2.565,-1.245 2.764,-3.736l3.288,-54.399c1.545,-1.345 4.384,-2.541 8.519,-3.587c3.935,-0.896 7.497,-1.345 10.685,-1.345c7.523,0 13.152,1.719 16.888,5.156c3.736,3.438 5.604,7.871 5.604,13.301c0,3.039 -1.233,9.851 -3.698,20.437c-2.466,10.586 -6.016,24.896 -10.649,42.929c-1.693,6.327 -5.504,10.885 -11.432,13.675c-5.181,2.391 -12.031,3.586 -20.55,3.586c-5.38,0 -10.461,-0.597 -15.243,-1.793c-4.783,-1.195 -8.619,-2.914 -11.508,-5.156c-3.935,-8.668 -7.896,-20.586 -11.881,-35.755c-3.985,-15.169 -6.974,-30.525 -8.967,-46.068c4.683,-6.924 12.13,-10.386 22.343,-10.386c13.151,-0 21.371,5.155 24.659,15.467Z" style="fill-rule:nonzero;"/><path d="M324.634,15.365l-0,77.19c-2.292,1.993 -5.356,3.662 -9.191,5.007c-3.836,1.345 -8.494,2.017 -13.974,2.017c-5.48,0 -10.137,-1.22 -13.973,-3.661c-4.334,-2.64 -6.501,-6.376 -6.501,-11.209l-0,-77.19c2.291,-1.992 5.355,-3.661 9.191,-5.006c3.836,-1.345 8.469,-2.018 13.898,-2.018c5.43,0 10.138,1.196 14.123,3.587c4.285,2.74 6.427,6.501 6.427,11.283Z" style="fill-rule:nonzero;"/></g></svg>