<svg xmlns="http://www.w3.org/2000/svg" 
xml:space="preserve" 
fill-rule="evenodd" 
stroke-linejoin="round" 
stroke-miterlimit="2" 
clip-rule="evenodd" 
viewBox="0 0 6025 1771">
  <path fill-rule="nonzero" 
  d="M4480.02 637.967h-822.992l-386.996 800.071h-4.32l-387.013-800.071h-497.253c-65.095-23.988-139.787-36.771-223.097-36.771-253.125 0-475.954 125.312-577.604 332.746h-2.171c-62.671-205.263-233.4-332.746-492.758-332.746-257.45 0-469.463 127.483-568.959 328.421h-2.17l-66.996-291.65H15.432v1115.5h518.7v-514.633c0-194.621 112.5-311.392 305.05-311.392 155.767 0 250.955 90.817 250.955 248.683v577.342h516.529v-514.633c0-194.621 112.5-311.392 305.054-311.392 157.933 0 250.954 90.817 250.954 248.683v577.342h518.696v-462.529l249.221 462.529h665.9l471.052-861.823 464.369 861.823h665.92l268.517-491.287v491.287h516.546v-1115.5h-724.542l-386.996 800.071h-4.325L4480.02 637.967Zm1245.69-117.046c164.255 0 283.142-103.733 283.142-252.867 0-146.962-118.887-250.691-283.142-250.691-166.425 0-285.295 103.733-285.295 250.691 0 149.134 118.87 252.867 285.295 252.867Z"/>
</svg>